<svg width="261" height="40" viewBox="0 0 261 40" fill="none" xmlns="http://www.w3.org/2000/svg">
<g clip-path="url(#clip0_2_254)">
<path d="M16.3663 27.1393C15.9751 28.2605 15.6956 28.4474 15.0695 29.4037C14.4435 30.371 13.6274 31.1404 12.3642 31.5251C11.7382 31.8329 10.7991 31.9099 9.7818 32.0308C9.07751 32.1077 8.33969 32.1847 7.6354 32.0747C7.00937 31.9648 5.99206 31.9648 5.39957 31.5361C4.61702 30.9975 4.61702 28.5353 5.60079 28.1506C5.63433 26.3369 4.97476 22.1489 4.50523 21.0277C4.74 19.4449 2.81718 13.5642 2.47062 11.6735C1.53157 11.7505 1.4086 12.2121 0.279507 11.2119C-0.30181 10.3655 0.122999 9.62901 0.558986 8.5518C1.65454 7.5845 3.06312 6.892 4.51641 6.39736C5.92499 5.89172 7.37828 5.89172 8.74214 5.89172C9.44642 5.89172 10.419 6.32041 11.2127 6.4743L13.1691 8.16707C14.1081 9.01346 14.2646 11.3218 14.0299 12.5969C14.0299 13.6741 13.4374 15.18 12.7331 16.2902C13.2026 16.521 14.2646 16.7079 15.0807 17.5213C15.9862 18.4116 16.8806 20.3682 16.8023 22.1379C16.8806 22.9514 16.8023 25.9522 16.3775 27.1393H16.3663ZM9.16695 10.3215C7.79191 9.81588 7.79191 10.0137 6.62927 10.3215C6.66281 10.8271 7.68012 14.8612 7.88134 15.5537C8.35087 15.2789 9.94949 15.4438 9.94949 15.3998C10.106 14.9821 10.6985 13.0915 10.6538 12.355C10.6202 11.6625 10.0725 10.5084 9.16695 10.3105V10.3215ZM11.7158 20.1704C11.1345 19.9395 9.28992 19.8626 8.74214 20.0605V20.1044C8.74214 20.1044 8.69742 20.4452 8.78685 20.72C8.86511 20.9508 9.09987 22.3028 8.9769 22.8744L9.52468 26.3039C9.44642 26.6117 9.52468 27.612 9.55822 27.9198C10.1507 27.9967 11.6711 27.3042 11.9841 27.0734C12.8002 25.9961 13.1579 23.7977 12.8896 21.6433C12.8114 21.0278 12.2971 20.5331 11.7158 20.1814V20.1704Z" fill="white"/>
<path d="M29.4348 27.2492C28.2945 28.0956 26.9642 28.6342 25.3991 28.4364C23.8675 28.5463 22.4701 28.2056 21.7547 27.2822C20.7374 26.4358 19.9884 25.2377 19.217 24.0506C18.7028 23.2372 18.3897 22.2808 18.3115 21.2366C18.2332 20.1594 18.3562 19.0382 18.7028 18.0049C18.5015 17.3894 19.1723 16.7738 19.5635 16.3122C20.1113 15.4218 20.9386 14.6524 21.9559 14.3116C22.5372 14.1138 23.1632 14.0038 23.8675 13.806C24.147 13.762 24.3818 13.762 24.6165 13.762C26.2934 13.806 27.7467 14.6524 29.2782 15.3009C31.5476 16.6859 32.0619 18.8074 32.0954 21.0387C32.0954 22.116 32.0171 23.2372 31.9389 24.3144C31.1899 24.886 30.5638 26.8975 29.4348 27.2383V27.2492ZM24.583 17.7851C24.0352 18.0159 22.9397 17.7082 22.9397 18.6315C22.7049 19.247 22.6602 20.2803 22.5931 20.8629C22.7831 22.017 23.2527 22.9843 24.1582 23.8307C24.3147 23.9077 24.4712 23.9406 24.5495 24.0616C25.5668 24.6771 27.2101 23.9077 27.7579 23.0613C28.3057 22.5227 28.0709 21.0607 27.9926 20.4012C27.1318 19.5988 27.2101 17.7851 24.583 17.7851Z" fill="white"/>
<path d="M40.9382 32.6793C37.808 32.9871 36.1982 30.4809 34.7896 28.2165C32.8333 25.1717 33.9288 19.4449 37.5285 18.1698C38.121 17.939 38.7023 17.8181 39.4513 17.6312C41.4077 17.4004 42.3467 17.906 44.113 18.6755C47.9475 20.2583 47.3997 25.1388 47.2097 28.5243C45.9129 30.6788 44.0795 33.141 40.9493 32.6793H40.9382ZM43.2075 23.9846C43.051 22.5996 42.0002 21.8741 40.1109 22.061C39.5967 21.9841 39.0489 22.4018 38.6241 22.7205C38.434 23.2591 37.9645 24.1055 37.8751 24.7541C38.1098 25.9082 38.7023 26.9854 39.4401 27.6779L40.5692 28.4144C40.5692 28.4144 40.5245 28.4144 40.5245 28.4474C41.7766 28.6013 42.5256 28.1726 43.3417 27.0954C43.6994 26.6337 43.2634 24.5562 43.1852 23.9736L43.2075 23.9846Z" fill="white"/>
<path d="M65.8229 39.8351C64.8838 40.3408 63.4305 39.6373 62.8492 38.4062C62.335 36.0978 61.6754 34.7128 60.7364 32.5144C60.2221 31.3273 59.6408 30.316 59.2048 29.1619L58.657 27.6999L58.1092 26.2819C57.8745 25.6994 57.5168 25.1278 57.282 24.5122C56.9243 24.853 56.3765 25.3146 56.2982 25.7873C56.22 26.172 56.5777 33.141 56.7677 33.6356C56.6895 34.6359 56.3429 35.4493 55.7504 36.3287C54.7667 37.0651 53.2798 37.0212 52.229 36.1418C51.7595 34.9437 51.48 34.3281 51.48 33.0201C51.48 32.6353 51.6365 32.1737 51.5918 31.8329C51.5583 31.4042 51.357 31.0195 51.3235 30.5249C51.2452 29.5576 51.7483 28.5573 51.67 27.601C51.6253 27.1393 51.3906 26.6777 51.357 26.249C51.167 24.2154 51.2005 22.094 51.0887 19.9395C51.044 19.1701 50.3844 18.7084 50.854 17.2465C50.6639 15.3229 50.3062 14.2017 50.1497 12.3221C50.0714 11.3218 50.1944 10.3215 50.0379 9.32124C49.8478 8.01318 49.7584 7.1668 49.7584 5.7818C49.7584 4.8145 49.7137 3.8582 49.2442 2.93487C49.1659 1.05523 49.7137 0.439675 51.9048 0.010986C53.8276 -0.175879 54.4089 2.01154 54.6102 4.59466C54.6549 5.13327 54.7667 5.67188 54.7667 6.25446C54.7667 6.71613 54.722 7.17779 54.722 7.60648C54.722 8.03517 54.8449 8.45287 54.8449 8.91453C54.8449 10.1456 54.6102 10.1017 55.1132 11.4537C55.0797 12.8827 55.1132 13.4982 55.3145 14.9162C55.6275 15.2569 56.1305 16.9937 55.8958 16.4551C55.2362 18.6535 56.0187 18.3787 55.974 19.4999C56.6783 18.8074 57.2708 17.884 57.8521 16.9937C58.6011 15.8725 60.591 13.0256 61.34 12.0253C62.3573 11.2119 63.4529 11.2888 64.5484 12.5309C65.0627 13.1025 65.2527 14.0258 65.0627 14.7623C64.5484 15.6856 64.4702 15.7626 63.9224 16.6529C63.3746 17.5433 61.3736 19.313 60.5575 20.5441C61.027 21.7312 61.1053 23.0393 61.9661 24.1165C62.1226 25.0838 63.0616 25.8862 63.3746 26.7766C63.4976 27.1173 63.5311 27.546 63.6094 27.8978C64.0342 29.7884 65.7558 31.2064 66.0353 33.5587C66.6613 34.6359 66.5495 34.6799 66.9296 36.0209C66.9296 36.2077 67.3656 37.252 67.3656 37.4389C67.3656 38.637 67.0526 39.2086 65.8005 39.8681L65.8229 39.8351Z" fill="white"/>
<path d="M70.4399 16.598L69.2661 16.488L69.4226 16.598C68.4053 16.4111 67.5892 15.8615 67.7793 14.6304C68.0923 13.4433 68.7966 12.8607 69.6574 12.1682C70.1716 11.7835 70.1716 11.6625 70.0934 11.2009C70.0934 11.2009 68.45 10.97 67.824 9.81589C67.075 8.46387 67.8687 7.78236 68.137 6.6172C69.3443 5.23221 70.0934 5.64991 71.5355 5.81479C72.5975 6.15554 73.6148 7.04589 73.9613 8.277C73.8048 11.3987 73.9613 15.0921 70.4399 16.587V16.598Z" fill="white"/>
<path d="M83.1619 11.5966C83.0501 11.8714 82.1781 12.1022 81.988 12.3331C81.2837 13.0256 80.2217 15.147 80.5459 16.3781C80.3894 18.6095 81.5632 20.3792 82.8488 22.3028C84.2239 24.3803 85.7107 26.5787 85.7107 29.6565C85.7107 30.1951 85.666 30.7667 85.5989 32.1187C85.1629 33.5367 85.4424 33.7675 83.5978 35.5812C82.1445 37.0871 79.6404 38.3182 77.7288 36.9662C76.432 36.4276 75.8171 35.6581 75.8171 34.7348C76.1637 33.5807 76.2084 32.9981 76.9127 32.1517C77.93 31.5361 79.2603 32.7672 79.5733 32.5364C80.2329 32.4265 81.1384 31.5361 81.2949 30.7227C81.3396 30.4919 81.4067 29.4916 80.9372 28.8761C80.8254 27.1063 79.7298 25.5235 78.6231 24.0286C77.9188 23.0283 77.181 22.061 76.7115 21.0278C76.0854 18.0599 75.3812 18.3347 76.1972 14.9821C76.9015 12.2451 78.7014 9.67299 80.423 7.4416C82.6141 6.08958 85.3194 3.82523 86.9181 7.94724C86.7615 11.102 84.7717 9.91481 83.1619 11.6076V11.5966Z" fill="white"/>
<path d="M111.803 11.9044C111.177 12.7508 110.271 11.9813 109.377 11.014C109.22 10.5853 108.986 10.1676 108.863 9.70596C108.673 8.85958 108.74 7.89228 108.27 7.32069C108.192 7.1668 106.672 7.39764 106.549 7.32069C105.341 10.6293 106.079 9.16735 106.236 12.3221C106.28 13.2124 106.672 17.4773 106.549 18.0159C107.689 17.5543 109.366 17.1256 110.383 17.862C110.931 18.1698 111.322 18.4007 111.367 19.4779C111.412 20.5221 111.367 20.9398 111.009 21.2916C109.802 22.4897 108.27 22.4897 106.783 22.7975C106.783 23.3361 106.94 27.568 106.94 27.568L106.817 28.0736C107.007 29.9973 107.521 31.8439 107.443 33.7675C107.242 34.9547 106.772 36.0429 105.442 36.4606C104.302 36.3836 103.407 35.6581 102.938 34.3061C103.206 31.1074 101.999 28.0736 102.502 24.875C102.424 24.5342 102.424 24.2264 102.424 23.9516C102.424 23.7977 102.424 23.6109 102.457 23.446C101.283 23.5999 100.657 23.6329 100.031 23.2152C99.0922 22.7865 99.204 20.632 99.204 20.676L99.4387 19.7966C99.9418 19.0272 100.613 18.7194 102.144 18.4886C101.954 17.0267 101.596 15.0591 101.865 13.5202C101.675 10.9041 101.317 8.09013 102.144 5.78181C102.614 4.47376 103.474 3.39654 104.928 2.55015C106.18 2.55015 108.885 2.39626 109.936 3.04479C110.562 3.42951 111.143 3.96812 111.501 4.89145C111.736 5.47403 112.049 6.04562 112.44 6.55125L112.675 7.73839C112.787 7.96922 112.988 8.16708 113.1 8.39791C113.29 8.78263 113.457 9.32124 113.334 9.9368C113.211 10.5853 112.787 11.2888 111.769 11.9044H111.803Z" fill="white"/>
<path d="M124.715 27.2492C123.586 28.0956 122.244 28.6342 120.679 28.4364C119.148 28.5463 117.75 28.2056 117.046 27.2822C116.029 26.4358 115.28 25.2377 114.497 24.0506C113.983 23.2372 113.67 22.2808 113.592 21.2366C113.513 20.1594 113.636 19.0382 113.983 18.0049C113.793 17.3894 114.452 16.7738 114.844 16.3122C115.391 15.4218 116.219 14.6524 117.236 14.3116C117.828 14.1138 118.443 14.0038 119.148 13.806C119.427 13.762 119.662 13.762 119.897 13.762C121.585 13.806 123.027 14.6524 124.558 15.3009C126.828 16.6859 127.342 18.8074 127.375 21.0387C127.375 22.116 127.297 23.2372 127.219 24.3144C126.47 24.886 125.844 26.8975 124.715 27.2383V27.2492ZM119.863 17.7851C119.315 18.0159 118.22 17.7082 118.22 18.6315C117.985 19.247 117.94 20.2803 117.862 20.8629C118.063 22.017 118.533 22.9843 119.427 23.8307C119.584 23.9077 119.74 23.9406 119.818 24.0616C120.836 24.6771 122.479 23.9077 123.027 23.0613C123.575 22.5227 123.34 21.0607 123.261 20.4012C122.401 19.5988 122.479 17.7851 119.852 17.7851H119.863Z" fill="white"/>
<path d="M141.651 23.7098C141.651 24.0945 141.607 24.4463 141.651 24.787C141.651 25.5235 141.696 26.4358 141.931 27.0954L141.886 27.5241C142.4 28.1726 142.322 28.986 141.651 29.9093C141.025 30.415 139.818 31.2613 138.286 30.294C137.929 29.7884 137.772 29.3707 137.694 29.019C137.694 29.019 137.537 28.7881 137.537 28.4804C136.52 29.2168 135.268 29.6675 133.781 29.6015L132.999 29.2168C132.607 29.1729 132.216 29.019 131.903 28.7552C130.729 28.5573 130.573 27.4801 130.494 26.6007C130.539 26.6007 130.539 26.6447 130.539 26.6007C130.573 26.6007 130.461 26.4908 129.991 25.9522C129.712 24.1385 129.757 18.6425 129.6 16.598C129.522 15.5647 130.193 15.0151 130.975 14.5974C131.914 14.3666 133.323 14.8722 133.68 15.6746L134.15 16.7958C133.96 18.3787 133.569 23.7208 134.038 25.2267C134.318 25.3366 135.246 25.1937 135.525 25.1498C135.95 24.9629 136.732 24.9189 136.934 24.5342C137.481 23.5669 137.325 19.1811 137.448 18.2248C137.135 17.1036 136.978 16.4881 137.604 15.3779C138.901 14.4545 141.092 13.8829 141.752 16.0704C141.797 17.4224 142.3 18.4556 141.987 19.8406C142.065 20.2693 141.674 23.424 141.674 23.7318L141.651 23.7098Z" fill="white"/>
<path d="M157.57 30.0192C155.972 30.371 155.659 30.6348 154.91 29.8654C153.579 28.5133 151.187 25.3586 149.7 24.2045C149.152 23.0833 149.152 23.391 149.074 23.2811V23.6658C149.074 25.1278 149.7 27.0184 149.745 28.4364V29.1729C149.79 30.0192 150.293 30.5578 149.51 31.2943C148.258 32.4155 147.196 33.2179 145.787 31.5691C145.676 29.5246 145.474 27.4141 145.161 25.3366C144.882 23.6878 144.569 22.028 144.457 20.3682C143.988 19.6757 144.099 18.9393 144.457 18.2468L144.692 18.0159C144.569 15.0151 148.023 15.3229 149.544 17.2465C149.901 17.7082 150.248 18.1698 150.684 18.4776C151.433 19.8296 154.049 22.3688 154.831 23.6768L154.44 21.2916C154.485 19.5219 153.613 17.983 154.049 16.3232C154.284 15.169 155.189 14.8173 156.206 14.4325C159.806 15.125 158.208 17.7411 158.554 19.0932V26.3259C158.554 27.9417 159.18 28.7552 157.57 30.0192Z" fill="white"/>
<path d="M175.96 33.2509C175.837 34.0203 175.535 34.2512 174.898 35.0976C174.473 35.2514 174.071 35.3284 173.724 35.3284C172.472 35.3284 171.69 34.526 171.488 33.5587C171.41 32.3276 171.365 31.1294 171.567 29.8983C171.488 29.8983 170.516 30.7447 170.471 30.7447C169.8 31.3273 168.627 32.2067 166.827 31.712C165.809 32.1737 164.121 30.7117 163.149 30.4809C161.74 29.1289 161.472 26.4029 161.472 24.5562C161.472 23.0503 162.02 22.05 162.366 20.742C163.775 17.2025 167.497 14.2787 171.131 15.125C171.086 14.7843 171.052 11.8494 171.086 11.4647C170.572 9.18934 171.209 6.7711 170.616 4.61666V3.77027C170.616 3.0338 170.538 2.53916 170.695 1.76972C171.321 0.692502 172.226 0.153893 173.076 0.0769483C174.283 -0.043964 175.39 0.725478 175.546 2.15444C175.625 2.72603 175.513 3.41853 175.2 4.18797C175.043 6.80407 175.155 8.77164 175.748 10.5743C175.468 13.0366 175.625 17.5433 175.625 19.5768C176.139 23.391 175.781 27.3921 175.938 31.0085C175.982 31.9758 176.05 32.4705 175.938 33.2399L175.96 33.2509ZM171.142 19.8186C170.985 19.6647 170.046 20.0165 169.845 19.8186C168.671 20.0165 167.699 20.9398 166.76 22.094C166.29 23.5559 165.932 24.3254 166.167 25.4466C166.279 26.7546 167.263 27.2163 167.967 27.2602C168.627 27.3042 169.297 26.9195 169.845 26.7546C170.359 26.6007 170.784 25.8643 171.287 25.7104C171.365 24.3254 171.287 22.4787 171.287 21.0497C171.097 20.9398 171.41 20.0824 171.131 19.8186H171.142Z" fill="white"/>
<path d="M204.881 33.5257C201.437 34.0973 201.862 33.1849 201.437 30.6018C201.124 29.0629 201.393 27.557 200.688 26.0951C200.767 24.787 200.845 22.2039 199.939 21.1707C199.47 21.0937 198.732 20.9838 197.86 21.1377C196.843 21.7862 197.044 24.2924 197.078 25.3256C197.111 25.6334 197.078 25.9852 197.111 26.3259C197.156 26.7546 197.312 27.1723 197.346 27.601C197.469 28.4914 197.469 29.3707 197.581 30.2611C197.614 30.6898 197.771 31.1514 197.815 31.5361C197.927 32.6903 197.346 33.3498 196.44 33.9214C192.215 34.6139 193.578 31.767 192.807 29.7994C192.997 28.8761 192.729 28.0627 192.572 27.1833L192.494 26.3699C192.449 25.9522 192.338 25.6004 192.304 25.1828C192.103 24.2594 192.025 23.3361 191.946 22.4457C191.79 19.6318 191.633 14.0148 191.667 11.091C191.667 10.0907 191.276 9.35423 191.354 8.35395C191.242 8.0132 190.884 4.66063 190.884 4.23194C190.773 3.95714 190.694 3.69333 190.65 3.38555C190.963 2.4952 191.633 1.00028 192.684 0.725481C192.841 0.681513 193.232 0.681513 193.467 0.725481C194.641 0.835401 195.267 1.84667 195.501 2.92389C195.658 3.58341 195.814 4.23194 195.691 4.89146C195.736 4.93543 195.971 7.47459 195.77 7.62848C195.814 10.0907 195.412 15.0591 196.049 17.1696C196.597 16.9387 197.145 16.7079 197.726 16.51C197.771 16.4331 199.325 16.1693 199.448 16.1693C201.057 16.2792 202.153 16.7848 203.047 18.0929C203.394 18.5985 203.83 19.2141 204.143 19.7857C205.048 21.3685 205.283 23.3251 205.082 25.1388C205.428 26.2929 205.395 27.568 205.272 28.7222C205.786 29.7225 205.663 31.0745 205.976 32.1517C206.166 32.7673 205.317 33.3059 204.836 33.5367L204.881 33.5257Z" fill="white"/>
<path d="M221.191 21.2916L220.375 21.6323C218.106 21.5554 214.696 22.094 212.505 22.4787C212.74 23.0173 213.131 23.5119 213.332 24.0176C214.036 24.6771 214.696 25.4026 215.478 25.9082C215.948 25.9082 216.261 25.9852 216.619 26.249C216.853 26.249 217.166 26.2929 217.401 26.4029L218.184 26.5897C219.045 27.1283 220.218 27.2053 219.872 28.942C219.827 29.1399 219.794 29.4037 219.715 29.5576C219.369 30.2171 218.732 30.2171 218.15 30.5249L217.133 31.0635C214.316 30.9536 212.236 29.1399 210.325 27.2492C209.934 26.8645 209.419 26.4358 209.151 25.9742C209.039 25.7873 208.961 25.5565 208.883 25.3586C208.413 24.1715 207.865 23.0943 207.709 21.8522C207.664 21.5004 207.474 21.2366 207.396 20.9618C207.709 17.3784 208.212 13.5312 211.309 11.2229C213.31 9.71695 216.082 9.33223 218.161 11.025C218.631 11.4867 219.447 11.9923 219.805 12.5309C220.431 13.4982 221.448 14.1907 221.683 15.3009C221.761 15.4878 221.806 15.6856 221.806 15.8395C221.929 16.1143 222.085 16.3451 222.119 16.609C222.119 16.609 223.214 20.9178 221.213 21.2696L221.191 21.2916ZM217.356 15.6746C216.965 14.9382 215.199 14.7513 214.416 14.6744C213.243 15.103 212.583 17.0267 212.382 18.1808C213.667 17.95 216.809 17.8291 218.094 17.4114C218.284 16.9827 217.703 15.9055 217.345 15.6746H217.356Z" fill="white"/>
<path d="M235.556 20.676C233.678 21.0277 234.069 18.4776 233.209 18.6755C232.191 18.5655 230.268 19.9395 230.034 20.7859C229.765 21.1377 230.034 22.3688 229.922 22.9843C230.034 23.2921 230.157 23.7867 229.967 24.2924C230.011 24.9849 230.123 25.8752 230.123 26.7546C230.123 27.7219 230.201 29.8763 228.949 30.5688C227.776 30.8436 227.653 31.1844 226.289 30.7227C225.506 29.4916 225.305 27.9857 225.741 26.8755C225.54 25.7983 225.54 24.6441 225.54 23.5999C225.54 22.4018 225.54 21.2476 225.305 20.0934C225.305 20.0495 225.618 15.8615 225.584 15.8175C224.925 12.7727 229.698 11.4317 230.045 14.5424C230.168 14.8832 230.201 15.2349 230.168 15.5097C230.995 14.8173 231.465 13.6961 232.594 13.817C234.204 14.1577 235.254 14.5534 236.35 15.8945C237.099 17.972 237.602 20.8629 235.567 20.665L235.556 20.676Z" fill="white"/>
<path d="M251.285 23.7868C251.006 23.9406 250.268 24.2924 250.078 24.3254C249.955 24.4353 249.139 24.5892 248.938 24.787C246.825 24.7101 245.07 25.1278 242.946 25.5235C243.225 25.9852 244.041 27.1064 244.242 27.557C245.226 28.0956 245.573 28.2495 246.121 28.1396C246.948 27.7109 246.981 27.2932 247.887 27.0954C248.043 27.0514 248.088 27.2053 248.323 27.2053L248.479 27.0184L249.497 27.1723C249.497 27.1723 251.062 27.9088 251.028 29.1729C250.749 29.9093 250.67 30.1731 249.888 30.5249C249.888 30.4479 249.776 30.8326 249.776 30.7997L249.228 31.3053C246.445 32.2286 244.22 32.0418 240.263 29.4586C239.558 27.7988 239.089 27.4251 238.888 25.4136C238.809 25.1058 238.608 24.798 238.496 24.4463C238.809 21.1377 239.357 17.4773 242.253 15.3998C243.426 14.5535 244.757 14.0918 246.009 14.1687C247.54 14.2127 248.938 15.0151 249.877 16.6309C251.442 17.906 250.704 17.0926 250.894 18.2468C250.972 18.5875 250.972 18.8623 250.894 19.2141C250.972 19.4119 251.051 19.5988 251.051 19.7197L251.565 20.5661C251.677 21.1816 251.408 20.7639 251.911 22.1819C251.632 23.1822 251.755 23.3691 251.285 23.7977V23.7868ZM247.686 20.8629C247.641 20.632 247.686 19.9725 247.138 19.6318C246.825 18.7084 246.277 18.3237 245.226 18.2468C244.164 18.7084 243.113 19.0162 242.644 20.709V21.9401C243.974 21.5114 245.193 21.9401 246.087 21.5114L247.686 21.2806C247.641 21.1707 247.686 21.0168 247.686 20.8629Z" fill="white"/>
<path d="M257.423 32.3276C256.014 32.6683 254.449 32.3276 253.7 30.5578C253.588 27.8648 255.03 26.4029 256.875 26.205C258.943 26.3589 259.893 27.557 260.128 29.019C260.206 30.7117 259.032 31.6021 257.423 32.3276ZM260.866 4.62765C260.866 5.08931 261.101 5.27618 260.944 5.85875C260.944 5.85875 260.553 7.35367 260.519 8.12311C260.474 8.93652 259.535 13.0146 259.58 15.5098C259.625 18.4336 259.345 20.1704 259.155 23.5559C259.077 24.787 257.859 25.0179 256.293 24.864C255.746 24.787 254.65 23.9406 254.728 23.0173C255.086 18.7084 255.164 15.8945 255.008 11.8934C255.433 9.3872 255.757 6.58423 255.835 3.84721C256.26 1.46194 260.374 0.461667 261 3.92416C260.888 4.30888 260.922 4.23193 260.888 4.61665L260.866 4.62765Z" fill="white"/>
</g>
<defs>
<clipPath id="clip0_2_254">
<rect width="261" height="40" fill="white"/>
</clipPath>
</defs>
</svg>
