<svg width="22" height="23" viewBox="0 0 22 23" fill="none" xmlns="http://www.w3.org/2000/svg">
<g clip-path="url(#clip0_5_49)">
<path d="M9.68834 0.446167C4.34633 0.446167 0 4.7925 0 10.1345C0 15.4768 4.34633 19.8228 9.68834 19.8228C15.0306 19.8228 19.3767 15.4768 19.3767 10.1345C19.3767 4.7925 15.0306 0.446167 9.68834 0.446167ZM9.68834 18.0343C5.33246 18.0343 1.78862 14.4904 1.78862 10.1345C1.78862 5.77867 5.33246 2.23478 9.68834 2.23478C14.0442 2.23478 17.5881 5.77863 17.5881 10.1345C17.5881 14.4904 14.0442 18.0343 9.68834 18.0343Z" fill="#111827"/>
<path d="M21.738 20.9196L16.6106 15.7922C16.2612 15.4428 15.6954 15.4428 15.346 15.7922C14.9966 16.1413 14.9966 16.7077 15.346 17.0568L20.4734 22.1841C20.6481 22.3588 20.8767 22.4462 21.1057 22.4462C21.3343 22.4462 21.5633 22.3588 21.738 22.1841C22.0873 21.8351 22.0873 21.2686 21.738 20.9196Z" fill="#111827"/>
</g>
<defs>
<clipPath id="clip0_5_49">
<rect width="22" height="22" fill="white" transform="translate(0 0.446167)"/>
</clipPath>
</defs>
</svg>
